<svg width="800" height="500" viewBox="0 0 800 500" xmlns="http://www.w3.org/2000/svg">
  <style>
    .logo-text { font-family: 'Segoe UI', 'Roboto', sans-serif; font-weight: 800; letter-spacing: -1px; }
    .slogan-text { font-family: 'Segoe UI', 'Roboto', sans-serif; font-weight: 500; text-transform: uppercase; letter-spacing: 2px; }
  </style>

  <defs>
    <linearGradient id="sunsetSky" x1="0%" y1="0%" x2="0%" y2="100%">
      <stop offset="0%" stop-color="#FF5722" />
      <stop offset="60%" stop-color="#FFC107" />
      <stop offset="100%" stop-color="#FFF8E1" />
    </linearGradient>

    <linearGradient id="treeOrange" x1="0%" y1="0%" x2="100%" y2="0%">
      <stop offset="0%" stop-color="#D84315" />
      <stop offset="50%" stop-color="#EF6C00" />
      <stop offset="100%" stop-color="#FF9800" />
    </linearGradient>
  </defs>

  <circle cx="400" cy="200" r="160" fill="url(#sunsetSky)" opacity="0.9" />

  <g transform="translate(400, 280)">
    <path d="M-20 120 Q-25 100 -20 80 Q-10 40 0 0 Q10 40 20 80 Q35 100 40 120 Z" fill="url(#treeOrange)" />
    <g stroke="url(#treeOrange)" stroke-width="12" fill="none" stroke-linecap="round" stroke-linejoin="round">
      <path d="M-10 40 L-60 20 L-100 20" /> 
      <path d="M0 10 L-50 -30 L-90 -30" />
      <rect x="-65" y="14" width="10" height="12" fill="#BF360C" transform="rotate(0)" />
      <rect x="-55" y="-36" width="10" height="12" fill="#BF360C" transform="rotate(0)" />
    </g>
    <g stroke="url(#treeOrange)" stroke-width="12" fill="none" stroke-linecap="round" stroke-linejoin="round">
      <path d="M10 30 L50 10 L110 10" />
      <path d="M5 0 L40 -40 L80 -40" />
      <rect x="45" y="4" width="10" height="12" fill="#BF360C" />
      <rect x="35" y="-46" width="10" height="12" fill="#BF360C" />
    </g>
    <g fill="#2E7D32" opacity="0.9">
      <ellipse cx="-100" cy="15" rx="50" ry="12" />
      <ellipse cx="-80" cy="-35" rx="55" ry="14" />
      <ellipse cx="100" cy="5" rx="55" ry="14" />
      <ellipse cx="70" cy="-45" rx="45" ry="12" />
      <ellipse cx="0" cy="-50" rx="60" ry="15" />
    </g>
  </g>

  <!-- Text Section (LIGHT MODE COLORS) -->
  <g text-anchor="middle">
    <!-- Main Title: Dark Brown -->
    <text x="400" y="450" class="logo-text" font-size="85" fill="#3E2723">ZooPipe</text>
    
    <!-- Slogan: Deep Brown -->
    <text x="400" y="485" class="slogan-text" font-size="20" fill="#4E342E">Streaming the Data Zoo</text>
  </g>
</svg>
